<svg xmlns="http://www.w3.org/2000/svg" width="512" height="155" fill="none" viewBox="0 0 512 155"><path fill="#fff" d="M140.784 149.494C142.289 149.433 143.129 149.374 144.273 149.071C149.686 147.63 153.655 143.658 154.317 138.788C155.399 130.907 148.484 127.719 143.371 125.374C143.071 125.255 142.709 125.074 142.409 124.893C136.935 122.367 133.327 119.903 133.446 115.931C133.747 106.548 146.859 103.182 150.409 111.541L151.911 110.879C150.409 107.391 146.017 104.504 139.583 105.767C134.35 106.79 129.538 110.518 129.418 115.811C129.238 123.269 136.935 126.879 140.665 128.623C141.026 128.743 141.327 128.924 141.688 129.105C147.341 131.63 151.071 136.02 150.289 140.471C148.604 149.914 136.153 150.757 129.897 141.856L128.576 142.757C132.064 147.75 136.754 149.494 140.784 149.494Z"/><path fill="#fff" d="M176.271 149.494C177.775 149.433 178.616 149.374 179.759 149.071C185.172 147.63 189.141 143.658 189.803 138.788C190.885 130.907 183.97 127.719 178.858 125.374C178.557 125.255 178.196 125.074 177.895 124.893C172.421 122.367 168.813 119.903 168.933 115.931C169.233 106.548 182.346 103.182 185.895 111.541L187.397 110.879C185.895 107.391 181.503 104.504 175.069 105.767C169.837 106.79 165.024 110.518 164.905 115.811C164.724 123.269 172.421 126.879 176.151 128.623C176.513 128.743 176.813 128.924 177.175 129.105C182.827 131.63 186.557 136.02 185.775 140.471C184.09 149.914 171.639 150.757 165.383 141.856L164.062 142.757C167.55 147.75 172.24 149.494 176.271 149.494Z"/><path fill="#fff" d="M217.651 149.494C227.938 149.494 235.757 139.63 235.757 127.48C235.757 115.33 227.938 105.466 217.651 105.466C207.306 105.466 199.548 115.33 199.548 127.48C199.548 139.63 207.306 149.494 217.651 149.494ZM217.651 147.87C209.532 147.87 203.579 137.344 203.579 127.48C203.579 117.555 209.532 107.091 217.651 107.091C225.712 107.091 231.665 117.555 231.665 127.48C231.665 137.344 225.712 147.87 217.651 147.87Z"/><path fill="#fff" d="M263.483 149.494C269.619 149.433 275.213 145.464 278.401 138.788L276.896 138.126C274.25 143.719 269.196 147.87 263.483 147.87C255.363 147.87 249.41 137.405 249.41 127.48C249.41 117.616 255.363 107.091 263.483 107.091C267.513 107.091 271.363 109.196 274.309 112.743L275.572 111.722C272.326 107.753 267.875 105.586 263.483 105.466C253.138 105.466 245.38 115.33 245.38 127.48C245.38 139.63 253.138 149.494 263.483 149.494Z"/><path fill="#fff" d="M289.225 148.832H293.317V105.647H289.225V148.832Z"/><path fill="#fff" d="M305.405 148.832H307.09L310.517 137.764H328.562L331.93 148.832H336.2L322.907 105.647H318.637V105.708L305.405 148.832ZM310.998 136.142L319.541 108.473L328.019 136.142H310.998Z"/><path fill="#fff" d="M359.237 148.832H363.326V107.271H374.272V105.647H348.289V107.271H359.237V148.832Z"/><path fill="#fff" d="M386.301 148.832H390.393V105.647H386.301V148.832Z"/><path fill="#fff" d="M419.382 149.494C429.669 149.494 437.488 139.63 437.488 127.48C437.488 115.33 429.669 105.466 419.382 105.466C409.037 105.466 401.279 115.33 401.279 127.48C401.279 139.63 409.037 149.494 419.382 149.494ZM419.382 147.87C411.262 147.87 405.31 137.344 405.31 127.48C405.31 117.555 411.262 107.091 419.382 107.091C427.443 107.091 433.396 117.555 433.396 127.48C433.396 137.344 427.443 147.87 419.382 147.87Z"/><path fill="#fff" d="M448.312 148.832H449.937V108.415L473.695 148.771V148.832H475.319V105.647H473.695V140.774L453.005 105.647H448.312V148.832Z"/><path fill="#fff" d="M498.354 149.494C499.859 149.433 500.699 149.374 501.842 149.071C507.255 147.63 511.225 143.658 511.887 138.788C512.969 130.907 506.054 127.719 500.941 125.374C500.641 125.255 500.279 125.074 499.979 124.893C494.504 122.367 490.897 119.903 491.016 115.931C491.317 106.548 504.429 103.182 507.979 111.541L509.481 110.879C507.979 107.391 503.586 104.504 497.152 105.767C491.92 106.79 487.108 110.518 486.988 115.811C486.807 123.269 494.504 126.879 498.235 128.623C498.596 128.743 498.897 128.924 499.258 129.105C504.911 131.63 508.641 136.02 507.859 140.471C506.173 149.914 493.723 150.757 487.467 141.856L486.145 142.757C489.634 147.75 494.324 149.494 498.354 149.494Z"/><path fill="#fff" d="M249.491 100.652H255.718C260.527 100.652 264.409 95.8108 264.409 89.765C264.409 83.7218 260.527 79.0611 255.718 79.0611H249.491V100.652ZM251.535 99.8707V79.872H255.718C259.387 79.872 262.394 84.865 262.394 89.765C262.394 94.6968 259.387 99.8707 255.718 99.8707H251.535Z"/><path fill="#fff" d="M269.82 100.652H282.662V99.8414H271.865V90.1266H280.016V89.3156H271.865V79.872H282.029V79.0611H269.82V100.652Z"/><path fill="#fff" d="M294.18 100.982C294.932 100.953 295.352 100.924 295.924 100.772C298.63 100.052 300.617 98.0655 300.946 95.6301C301.489 91.6899 298.03 90.0974 295.472 88.9249C295.323 88.8637 295.142 88.7733 294.991 88.6829C292.255 87.4201 290.45 86.1864 290.511 84.203C290.662 79.5105 297.219 77.8275 298.992 82.007L299.744 81.6773C298.992 79.9332 296.796 78.4895 293.579 79.1196C290.963 79.6301 288.557 81.4965 288.496 84.1419C288.405 87.872 292.255 89.6746 294.119 90.5467C294.299 90.6078 294.451 90.6982 294.632 90.7886C297.458 92.0515 299.322 94.2476 298.931 96.4729C298.091 101.195 291.864 101.615 288.737 97.1642L288.075 97.6162C289.82 100.11 292.165 100.982 294.18 100.982Z"/><path fill="#fff" fill-rule="evenodd" d="M63.7049 74.7642L17.6802 154.482H22.6351L63.7049 83.3464L104.777 154.482H109.732L63.7049 74.7642Z" clip-rule="evenodd"/><path fill="#fff" fill-rule="evenodd" d="M16.2951 110.01C26.789 120.528 40.7711 126.308 55.6225 126.308C70.474 126.308 84.4587 120.528 94.95 110.01C100.463 104.511 104.675 98.0521 107.434 91.0114H103.826C101.233 97.1555 97.4492 102.8 92.5943 107.655C82.7226 117.527 69.5833 122.972 55.6225 122.972C41.6617 122.972 28.5225 117.527 18.6507 107.655C8.77901 97.7831 3.334 84.6465 3.334 70.6831C3.334 56.7223 8.77901 43.583 18.6507 33.7113C28.5225 23.8422 41.6617 18.3945 55.6225 18.3945C66.7305 18.3945 77.3183 21.8432 86.154 28.2237H91.5592C81.5346 19.6986 68.9263 15.0605 55.6225 15.0605C40.7711 15.0605 26.789 20.8405 16.2951 31.3557C5.78 41.8495 0 55.8316 0 70.6831C0 85.5345 5.78 99.5192 16.2951 110.01Z" clip-rule="evenodd"/><path fill="#fff" d="M153.05 21.8325H165.863V21.0216H155.095V0.241241H153.05V21.8325Z"/><path fill="#fff" d="M171.876 21.8325H184.718V21.0216H173.921V11.3067H182.072V10.4958H173.921V1.05214H184.085V0.241241H171.876V21.8325Z"/><path fill="#fff" d="M106.723 70.0123H132.345V68.3878H110.815V26.8271H106.723V70.0123Z"/><path fill="#fff" d="M144.375 70.0123H146.06L149.487 58.9441H167.532L170.901 70.0123H175.17L161.877 26.8271H157.607V26.8882L144.375 70.0123ZM149.969 57.3223L158.511 29.6533L166.99 57.3223H149.969Z"/><path fill="#fff" d="M198.266 70.6743C199.771 70.6131 200.611 70.5546 201.754 70.2515C207.167 68.8105 211.137 64.8384 211.799 59.9677C212.881 52.0873 205.966 48.8996 200.853 46.5546C200.553 46.4349 200.191 46.2542 199.891 46.0734C194.416 43.5476 190.809 41.083 190.928 37.1109C191.229 27.7284 204.341 24.3625 207.891 32.7214L209.393 32.0594C207.891 28.5712 203.498 25.6838 197.064 26.9467C191.832 27.9703 187.02 31.6978 186.9 36.9913C186.719 44.4489 194.416 48.0594 198.147 49.8035C198.508 49.9232 198.809 50.1039 199.17 50.2847C204.823 52.8105 208.553 57.2 207.771 61.6507C206.085 71.0943 193.635 71.9371 187.379 63.0358L186.057 63.9371C189.546 68.9302 194.236 70.6743 198.266 70.6743Z"/><path fill="#fff" d="M233.753 70.6743C235.257 70.6131 236.097 70.5546 237.241 70.2515C242.654 68.8105 246.623 64.8384 247.285 59.9677C248.367 52.0873 241.452 48.8996 236.339 46.5546C236.039 46.4349 235.677 46.2542 235.377 46.0734C229.903 43.5476 226.295 41.083 226.415 37.1109C226.715 27.7284 239.828 24.3625 243.377 32.7214L244.879 32.0594C243.377 28.5712 238.985 25.6838 232.551 26.9467C227.318 27.9703 222.506 31.6978 222.387 36.9913C222.206 44.4489 229.903 48.0594 233.633 49.8035C233.994 49.9232 234.295 50.1039 234.656 50.2847C240.309 52.8105 244.039 57.2 243.257 61.6507C241.572 71.0943 229.121 71.9371 222.865 63.0358L221.544 63.9371C225.032 68.9302 229.722 70.6743 233.753 70.6743Z"/><path fill="#fff" d="M258.232 70.0123H283.915V68.3878H262.324V48.9607H278.621V47.3363H262.324V28.4515H282.652V26.8271H258.232V70.0123Z"/><path fill="#fff" d="M295.944 26.8271V70.0123H297.568V31.8786L311.582 70.0123H316.033L330.166 31.5197V70.0734H334.197V26.8271H330.166L315.07 67.7869L300.035 26.8271H295.944Z"/><path fill="#fff" d="M346.226 70.0123H371.909V68.3878H350.318V48.9607H366.615V47.3363H350.318V28.4515H370.646V26.8271H346.226V70.0123Z"/><path fill="#fff" d="M383.938 70.0123H385.562V29.5948L409.32 69.9511V70.0123H410.945V26.8271H409.32V61.9538L388.63 26.8271H383.938V70.0123Z"/><path fill="#fff" d="M433.921 70.0123H438.01V28.4515H448.956V26.8271H422.973V28.4515H433.921V70.0123Z"/></svg>