<svg width="512" height="155" viewBox="0 0 512 155" fill="none" xmlns="http://www.w3.org/2000/svg">
<path d="M140.784 149.253C142.289 149.192 143.129 149.133 144.273 148.83C149.686 147.389 153.655 143.417 154.317 138.546C155.399 130.666 148.484 127.478 143.371 125.133C143.071 125.014 142.709 124.833 142.409 124.652C136.935 122.126 133.327 119.662 133.446 115.69C133.747 106.307 146.859 102.941 150.409 111.3L151.911 110.638C150.409 107.15 146.017 104.262 139.583 105.525C134.35 106.549 129.538 110.276 129.418 115.57C129.238 123.028 136.935 126.638 140.665 128.382C141.026 128.502 141.327 128.683 141.688 128.863C147.341 131.389 151.071 135.779 150.289 140.229C148.604 149.673 136.153 150.516 129.897 141.614L128.576 142.516C132.064 147.509 136.754 149.253 140.784 149.253Z" fill="#291B25"/>
<path d="M176.271 149.253C177.775 149.192 178.616 149.133 179.759 148.83C185.172 147.389 189.141 143.417 189.803 138.546C190.885 130.666 183.97 127.478 178.858 125.133C178.557 125.014 178.196 124.833 177.895 124.652C172.421 122.126 168.813 119.662 168.933 115.69C169.233 106.307 182.346 102.941 185.895 111.3L187.397 110.638C185.895 107.15 181.503 104.262 175.069 105.525C169.837 106.549 165.024 110.276 164.905 115.57C164.724 123.028 172.421 126.638 176.151 128.382C176.513 128.502 176.813 128.683 177.175 128.863C182.827 131.389 186.557 135.779 185.775 140.229C184.09 149.673 171.639 150.516 165.383 141.614L164.062 142.516C167.55 147.509 172.24 149.253 176.271 149.253Z" fill="#291B25"/>
<path d="M217.651 149.253C227.938 149.253 235.757 139.389 235.757 127.239C235.757 115.089 227.938 105.225 217.651 105.225C207.306 105.225 199.548 115.089 199.548 127.239C199.548 139.389 207.306 149.253 217.651 149.253ZM217.651 147.628C209.532 147.628 203.579 137.103 203.579 127.239C203.579 117.314 209.532 106.849 217.651 106.849C225.712 106.849 231.665 117.314 231.665 127.239C231.665 137.103 225.712 147.628 217.651 147.628Z" fill="#291B25"/>
<path d="M263.483 149.253C269.619 149.192 275.213 145.222 278.401 138.546L276.896 137.884C274.25 143.478 269.196 147.628 263.483 147.628C255.363 147.628 249.41 137.164 249.41 127.239C249.41 117.375 255.363 106.849 263.483 106.849C267.513 106.849 271.363 108.955 274.309 112.502L275.572 111.481C272.326 107.511 267.875 105.345 263.483 105.225C253.138 105.225 245.38 115.089 245.38 127.239C245.38 139.389 253.138 149.253 263.483 149.253Z" fill="#291B25"/>
<path d="M289.225 148.591H293.317V105.406H289.225V148.591Z" fill="#291B25"/>
<path d="M305.405 148.591H307.09L310.517 137.523H328.562L331.93 148.591H336.2L322.907 105.406H318.637V105.467L305.405 148.591ZM310.998 135.901L319.541 108.232L328.019 135.901H310.998Z" fill="#291B25"/>
<path d="M359.237 148.591H363.326V107.03H374.272V105.406H348.289V107.03H359.237V148.591Z" fill="#291B25"/>
<path d="M386.301 148.591H390.393V105.406H386.301V148.591Z" fill="#291B25"/>
<path d="M419.382 149.253C429.669 149.253 437.488 139.389 437.488 127.239C437.488 115.089 429.669 105.225 419.382 105.225C409.037 105.225 401.279 115.089 401.279 127.239C401.279 139.389 409.037 149.253 419.382 149.253ZM419.382 147.628C411.262 147.628 405.31 137.103 405.31 127.239C405.31 117.314 411.262 106.849 419.382 106.849C427.443 106.849 433.396 117.314 433.396 127.239C433.396 137.103 427.443 147.628 419.382 147.628Z" fill="#291B25"/>
<path d="M448.312 148.591H449.937V108.173L473.695 148.53V148.591H475.319V105.406H473.695V140.532L453.005 105.406H448.312V148.591Z" fill="#291B25"/>
<path d="M498.354 149.253C499.859 149.192 500.699 149.133 501.842 148.83C507.255 147.389 511.225 143.417 511.887 138.546C512.969 130.666 506.054 127.478 500.941 125.133C500.641 125.014 500.279 124.833 499.979 124.652C494.504 122.126 490.897 119.662 491.016 115.69C491.317 106.307 504.429 102.941 507.979 111.3L509.481 110.638C507.979 107.15 503.586 104.262 497.152 105.525C491.92 106.549 487.108 110.276 486.988 115.57C486.807 123.028 494.504 126.638 498.235 128.382C498.596 128.502 498.897 128.683 499.258 128.863C504.911 131.389 508.641 135.779 507.859 140.229C506.173 149.673 493.723 150.516 487.467 141.614L486.145 142.516C489.634 147.509 494.324 149.253 498.354 149.253Z" fill="#291B25"/>
<path d="M249.491 100.411H255.718C260.527 100.411 264.409 95.5696 264.409 89.5237C264.409 83.4805 260.527 78.8198 255.718 78.8198H249.491V100.411ZM251.535 99.6294V79.6307H255.718C259.387 79.6307 262.394 84.6238 262.394 89.5237C262.394 94.4556 259.387 99.6294 255.718 99.6294H251.535Z" fill="#291B25"/>
<path d="M269.82 100.411H282.662V99.6002H271.865V89.8853H280.016V89.0744H271.865V79.6307H282.029V78.8198H269.82V100.411Z" fill="#291B25"/>
<path d="M294.18 100.741C294.932 100.712 295.352 100.682 295.924 100.531C298.63 99.8103 300.617 97.8242 300.946 95.3889C301.489 91.4487 298.03 89.8561 295.472 88.6836C295.323 88.6225 295.142 88.5321 294.991 88.4417C292.255 87.1788 290.45 85.9452 290.511 83.9618C290.662 79.2692 297.219 77.5863 298.992 81.7657L299.744 81.436C298.992 79.6919 296.796 78.2483 293.579 78.8784C290.963 79.3889 288.557 81.2553 288.496 83.9007C288.405 87.6308 292.255 89.4334 294.119 90.3055C294.299 90.3666 294.451 90.457 294.632 90.5474C297.458 91.8103 299.322 94.0064 298.931 96.2317C298.091 100.954 291.864 101.374 288.737 96.9229L288.075 97.3749C289.82 99.8688 292.165 100.741 294.18 100.741Z" fill="#291B25"/>
<path fill-rule="evenodd" clip-rule="evenodd" d="M63.7049 74.5229L17.6802 154.241H22.6351L63.7049 83.1052L104.777 154.241H109.732L63.7049 74.5229Z" fill="#291B25"/>
<path fill-rule="evenodd" clip-rule="evenodd" d="M16.2951 109.769C26.789 120.287 40.7711 126.067 55.6225 126.067C70.474 126.067 84.4587 120.287 94.95 109.769C100.463 104.27 104.675 97.8109 107.434 90.7702H103.826C101.233 96.9143 97.4492 102.559 92.5943 107.414C82.7226 117.285 69.5833 122.73 55.6225 122.73C41.6617 122.73 28.5225 117.285 18.6507 107.414C8.77901 97.5419 3.334 84.4053 3.334 70.4418C3.334 56.481 8.77901 43.3418 18.6507 33.47C28.5225 23.6009 41.6617 18.1533 55.6225 18.1533C66.7305 18.1533 77.3183 21.602 86.154 27.9825H91.5592C81.5346 19.4574 68.9263 14.8193 55.6225 14.8193C40.7711 14.8193 26.789 20.5993 16.2951 31.1144C5.78 41.6083 0 55.5904 0 70.4418C0 85.2933 5.78 99.278 16.2951 109.769Z" fill="#291B25"/>
<path d="M153.05 21.5913H165.863V20.7804H155.095V0H153.05V21.5913Z" fill="#291B25"/>
<path d="M171.876 21.5913H184.718V20.7804H173.921V11.0655H182.072V10.2546H173.921V0.810902H184.085V0H171.876V21.5913Z" fill="#291B25"/>
<path d="M106.723 69.771H132.345V68.1466H110.815V26.5858H106.723V69.771Z" fill="#291B25"/>
<path d="M144.375 69.771H146.06L149.487 58.7029H167.532L170.901 69.771H175.17L161.877 26.5858H157.607V26.647L144.375 69.771ZM149.969 57.0811L158.511 29.412L166.99 57.0811H149.969Z" fill="#291B25"/>
<path d="M198.266 70.433C199.771 70.3718 200.611 70.3134 201.754 70.0103C207.167 68.5693 211.137 64.5972 211.799 59.7264C212.881 51.8461 205.966 48.6583 200.853 46.3133C200.553 46.1937 200.191 46.0129 199.891 45.8321C194.416 43.3063 190.809 40.8417 190.928 36.8696C191.229 27.4871 204.341 24.1212 207.891 32.4801L209.393 31.8181C207.891 28.3299 203.498 25.4426 197.064 26.7055C191.832 27.7291 187.02 31.4565 186.9 36.75C186.719 44.2076 194.416 47.8181 198.147 49.5623C198.508 49.6819 198.809 49.8627 199.17 50.0435C204.823 52.5692 208.553 56.9587 207.771 61.4094C206.085 70.8531 193.635 71.6959 187.379 62.7946L186.057 63.6959C189.546 68.6889 194.236 70.433 198.266 70.433Z" fill="#291B25"/>
<path d="M233.753 70.433C235.257 70.3718 236.097 70.3134 237.241 70.0103C242.654 68.5693 246.623 64.5972 247.285 59.7264C248.367 51.8461 241.452 48.6583 236.339 46.3133C236.039 46.1937 235.677 46.0129 235.377 45.8321C229.903 43.3063 226.295 40.8417 226.415 36.8696C226.715 27.4871 239.828 24.1212 243.377 32.4801L244.879 31.8181C243.377 28.3299 238.985 25.4426 232.551 26.7055C227.318 27.7291 222.506 31.4565 222.387 36.75C222.206 44.2076 229.903 47.8181 233.633 49.5623C233.994 49.6819 234.295 49.8627 234.656 50.0435C240.309 52.5692 244.039 56.9587 243.257 61.4094C241.572 70.8531 229.121 71.6959 222.865 62.7946L221.544 63.6959C225.032 68.6889 229.722 70.433 233.753 70.433Z" fill="#291B25"/>
<path d="M258.232 69.771H283.915V68.1466H262.324V48.7195H278.621V47.095H262.324V28.2103H282.652V26.5858H258.232V69.771Z" fill="#291B25"/>
<path d="M295.944 26.5858V69.771H297.568V31.6374L311.582 69.771H316.033L330.166 31.2784V69.8322H334.197V26.5858H330.166L315.07 67.5457L300.035 26.5858H295.944Z" fill="#291B25"/>
<path d="M346.226 69.771H371.909V68.1466H350.318V48.7195H366.615V47.095H350.318V28.2103H370.646V26.5858H346.226V69.771Z" fill="#291B25"/>
<path d="M383.938 69.771H385.562V29.3535L409.32 69.7099V69.771H410.945V26.5858H409.32V61.7125L388.63 26.5858H383.938V69.771Z" fill="#291B25"/>
<path d="M433.921 69.771H438.01V28.2103H448.956V26.5858H422.973V28.2103H433.921V69.771Z" fill="#291B25"/>
</svg>
