<svg width="100" height="101" viewBox="0 0 100 101" fill="none" xmlns="http://www.w3.org/2000/svg">
<circle cx="50" cy="50.4825" r="50" fill="#FFF6EA"/>
<path fill-rule="evenodd" clip-rule="evenodd" d="M53.563 46.2051L35.0667 78.2403H36.9664L53.6602 49.3269L70.3538 78.2403H72.059L53.563 46.2051Z" fill="#291B25"/>
<path d="M35.0667 78.2403L34.6337 77.9903L34.2006 78.7403H35.0667V78.2403ZM53.563 46.2051L53.996 45.9551L53.563 45.2052L53.13 45.9551L53.563 46.2051ZM36.9664 78.2403V78.7403H37.2551L37.3994 78.4903L36.9664 78.2403ZM53.6602 49.3269L54.0933 49.0769L53.6602 48.327L53.2272 49.0769L53.6602 49.3269ZM70.3538 78.2403L69.9208 78.4903L70.0651 78.7403H70.3538V78.2403ZM72.059 78.2403V78.7403H72.925L72.492 77.9903L72.059 78.2403ZM35.4997 78.4903L53.996 46.4551L53.13 45.9551L34.6337 77.9903L35.4997 78.4903ZM36.9664 77.7403H35.0667V78.7403H36.9664V77.7403ZM37.3994 78.4903L54.0933 49.5769L53.2272 49.0769L36.5334 77.9903L37.3994 78.4903ZM53.2272 49.5769L69.9208 78.4903L70.7868 77.9903L54.0933 49.0769L53.2272 49.5769ZM72.059 77.7403H70.3538V78.7403H72.059V77.7403ZM53.13 46.4551L71.6259 78.4903L72.492 77.9903L53.996 45.9551L53.13 46.4551Z" fill="#291B25"/>
<path fill-rule="evenodd" clip-rule="evenodd" d="M34.5043 60.3693C38.7213 64.5949 44.3407 66.9181 50.3086 66.9181C56.2768 66.9181 61.8963 64.5949 66.1133 60.3693C68.3097 58.1775 69.9921 55.6068 71.1014 52.8051H69.6496C68.6086 55.2466 67.0983 57.4901 65.1664 59.4221C61.1994 63.3891 55.9194 65.578 50.3086 65.578C44.6981 65.578 39.4179 63.3891 35.4512 59.4221C31.4846 55.4554 29.2957 50.1755 29.2957 44.5647C29.2957 38.9542 31.4846 33.674 35.4512 29.7073C39.4179 25.7406 44.6981 23.5517 50.3086 23.5517C54.7727 23.5517 59.0273 24.9373 62.5779 27.5014H64.7501C60.721 24.0754 55.6548 22.2116 50.3086 22.2116C44.3407 22.2116 38.7213 24.5344 34.5043 28.7604C30.2784 32.977 27.9556 38.5968 27.9556 44.5647C27.9556 50.5326 30.2784 56.1524 34.5043 60.3693Z" fill="#291B25"/>
<path d="M34.5043 60.3693L34.8582 60.0161L34.8575 60.0154L34.5043 60.3693ZM66.1133 60.3693L65.7601 60.0154L65.7594 60.0161L66.1133 60.3693ZM71.1014 52.8051L71.5662 52.9892L71.8371 52.3051H71.1014V52.8051ZM69.6496 52.8051V52.3051H69.3192L69.1897 52.609L69.6496 52.8051ZM65.1664 59.4221L65.5199 59.7757L65.5199 59.7757L65.1664 59.4221ZM35.4512 59.4221L35.8048 59.0686L35.8048 59.0686L35.4512 59.4221ZM35.4512 29.7073L35.0977 29.3537L35.0977 29.3537L35.4512 29.7073ZM62.5779 27.5014L62.2851 27.9068L62.4162 28.0014H62.5779V27.5014ZM64.7501 27.5014V28.0014H66.11L65.074 27.1205L64.7501 27.5014ZM34.5043 28.7604L34.8575 29.1143L34.8582 29.1136L34.5043 28.7604ZM50.3086 66.4181C44.4731 66.4181 38.9811 64.1475 34.8582 60.0161L34.1504 60.7225C38.4615 65.0424 44.2084 67.4181 50.3086 67.4181V66.4181ZM65.7594 60.0161C61.6365 64.1475 56.1445 66.4181 50.3086 66.4181V67.4181C56.4092 67.4181 62.1561 65.0424 66.4672 60.7225L65.7594 60.0161ZM70.6365 52.6211C69.5525 55.3588 67.9082 57.8718 65.7601 60.0154L66.4664 60.7233C68.7112 58.4833 70.4316 55.8547 71.5662 52.9892L70.6365 52.6211ZM71.1014 52.3051H69.6496V53.3051H71.1014V52.3051ZM65.5199 59.7757C67.4968 57.7987 69.0433 55.5019 70.1095 53.0012L69.1897 52.609C68.1738 54.9914 66.6998 57.1815 64.8128 59.0686L65.5199 59.7757ZM50.3086 66.078C56.0522 66.078 61.4592 63.8363 65.5199 59.7757L64.8128 59.0686C60.9395 62.9418 55.7867 65.078 50.3086 65.078V66.078ZM35.0977 59.7756C39.158 63.8363 44.5654 66.078 50.3086 66.078V65.078C44.8309 65.078 39.6778 62.9418 35.8048 59.0686L35.0977 59.7756ZM28.7957 44.5647C28.7957 50.3082 31.0373 55.7153 35.0977 59.7757L35.8048 59.0686C31.9318 55.1956 29.7957 50.0428 29.7957 44.5647H28.7957ZM35.0977 29.3537C31.0373 33.4141 28.7957 38.8215 28.7957 44.5647H29.7957C29.7957 39.0869 31.9318 33.9338 35.8048 30.0608L35.0977 29.3537ZM50.3086 23.0517C44.5654 23.0517 39.158 25.2934 35.0977 29.3537L35.8048 30.0608C39.6778 26.1879 44.8309 24.0517 50.3086 24.0517V23.0517ZM62.8706 27.0961C59.2346 24.4703 54.8775 23.0517 50.3086 23.0517V24.0517C54.6679 24.0517 58.82 25.4044 62.2851 27.9068L62.8706 27.0961ZM62.5779 28.0014H64.7501V27.0014H62.5779V28.0014ZM50.3086 22.7116C55.5367 22.7116 60.488 24.5336 64.4262 27.8823L65.074 27.1205C60.9541 23.6173 55.7728 21.7116 50.3086 21.7116V22.7116ZM34.8582 29.1136C38.9811 24.9819 44.4731 22.7116 50.3086 22.7116V21.7116C44.2084 21.7116 38.4615 24.087 34.1504 28.4072L34.8582 29.1136ZM28.4556 44.5647C28.4556 38.7291 30.7259 33.2369 34.8575 29.1143L34.1512 28.4064C29.8309 32.7172 27.4556 38.4645 27.4556 44.5647H28.4556ZM34.8575 60.0154C30.7259 55.8925 28.4556 50.4003 28.4556 44.5647H27.4556C27.4556 50.6649 29.8309 56.4122 34.1511 60.7233L34.8575 60.0154Z" fill="#291B25"/>
</svg>
