<svg xmlns="http://www.w3.org/2000/svg" width="50" height="51" fill="none" viewBox="0 0 50 51"><path fill="#fff" fill-rule="evenodd" d="M27.7836 22.3293L13.3333 47.3568H14.8175L27.8596 24.7682L40.9014 47.3568H42.2336L27.7836 22.3293Z" clip-rule="evenodd"/><path fill="#fff" d="M13.3333 47.3568L12.9003 47.1068L12.4673 47.8568H13.3333V47.3568ZM27.7836 22.3293L28.2166 22.0793L27.7836 21.3293L27.3506 22.0793L27.7836 22.3293ZM14.8175 47.3568V47.8568H15.1062L15.2505 47.6068L14.8175 47.3568ZM27.8596 24.7682L28.2926 24.5182L27.8596 23.7682L27.4266 24.5182L27.8596 24.7682ZM40.9014 47.3568L40.4684 47.6068L40.6128 47.8568H40.9014V47.3568ZM42.2336 47.3568V47.8568H43.0996L42.6666 47.1068L42.2336 47.3568ZM13.7664 47.6068L28.2166 22.5793L27.3506 22.0793L12.9003 47.1068L13.7664 47.6068ZM14.8175 46.8568H13.3333V47.8568H14.8175V46.8568ZM15.2505 47.6068L28.2926 25.0182L27.4266 24.5182L14.3845 47.1068L15.2505 47.6068ZM27.4266 25.0182L40.4684 47.6068L41.3344 47.1068L28.2926 24.5182L27.4266 25.0182ZM42.2336 46.8568H40.9014V47.8568H42.2336V46.8568ZM27.3506 22.5793L41.8006 47.6068L42.6666 47.1068L28.2166 22.0793L27.3506 22.5793Z"/><path fill="#fff" fill-rule="evenodd" d="M12.894 33.3951C16.1885 36.6963 20.5787 38.5113 25.2411 38.5113C29.9038 38.5113 34.294 36.6963 37.5885 33.3951C39.3045 31.6827 40.6188 29.6743 41.4854 27.4855H40.3512C39.5379 29.393 38.3581 31.1457 36.8487 32.6551C33.7495 35.7542 29.6246 37.4643 25.2411 37.4643C20.8579 37.4643 16.7327 35.7542 13.6338 32.6551C10.5348 29.5561 8.82474 25.4311 8.82474 21.0477C8.82474 16.6645 10.5348 12.5393 13.6338 9.44035C16.7327 6.34139 20.8579 4.63132 25.2411 4.63132C28.7287 4.63132 32.0526 5.71381 34.8264 7.71702H36.5235C33.3758 5.04047 29.4178 3.58435 25.2411 3.58435C20.5787 3.58435 16.1885 5.39907 12.894 8.70057C9.59249 11.9948 7.77777 16.3853 7.77777 21.0477C7.77777 25.7101 9.59249 30.1006 12.894 33.3951Z" clip-rule="evenodd"/><path fill="#fff" d="M12.894 33.3951L13.2479 33.0419L13.2472 33.0411L12.894 33.3951ZM37.5885 33.3951L37.2353 33.0411L37.2346 33.0419L37.5885 33.3951ZM41.4854 27.4855L41.9503 27.6696L42.2212 26.9855H41.4854V27.4855ZM40.3512 27.4855V26.9855H40.0209L39.8913 27.2894L40.3512 27.4855ZM36.8487 32.6551L37.2023 33.0086L37.2023 33.0086L36.8487 32.6551ZM13.6338 32.6551L13.9873 32.3015L13.9873 32.3015L13.6338 32.6551ZM34.8264 7.71702L34.5337 8.12237L34.6648 8.21702H34.8264V7.71702ZM36.5235 7.71702V8.21702H37.8834L36.8474 7.33611L36.5235 7.71702ZM12.894 8.70057L13.2472 9.05452L13.2479 9.05375L12.894 8.70057ZM25.2411 38.0113C20.7111 38.0113 16.4483 36.2488 13.2479 33.0419L12.5401 33.7483C15.9287 37.1438 20.4463 39.0113 25.2411 39.0113V38.0113ZM37.2346 33.0419C34.0342 36.2488 29.7714 38.0113 25.2411 38.0113V39.0113C30.0361 39.0113 34.5538 37.1438 37.9424 33.7483L37.2346 33.0419ZM41.0205 27.3015C40.1792 29.4263 38.903 31.377 37.2353 33.0411L37.9417 33.749C39.706 31.9885 41.0584 29.9223 41.9503 27.6696L41.0205 27.3015ZM41.4854 26.9855H40.3512V27.9855H41.4854V26.9855ZM37.2023 33.0086C38.7566 31.4543 39.9727 29.6482 40.8112 27.6816L39.8913 27.2894C39.1032 29.1378 37.9596 30.8371 36.4952 32.3015L37.2023 33.0086ZM25.2411 37.9643C29.7573 37.9643 34.0094 36.2015 37.2023 33.0086L36.4952 32.3015C33.4897 35.307 29.4918 36.9643 25.2411 36.9643V37.9643ZM13.2802 33.0086C16.4729 36.2015 20.7252 37.9643 25.2411 37.9643V36.9643C20.9906 36.9643 16.9926 35.307 13.9873 32.3015L13.2802 33.0086ZM8.32474 21.0477C8.32474 25.5638 10.0876 29.8159 13.2802 33.0086L13.9873 32.3015C10.9821 29.2962 9.32474 25.2984 9.32474 21.0477H8.32474ZM13.2802 9.0868C10.0876 12.2795 8.32474 16.5318 8.32474 21.0477H9.32474C9.32474 16.7972 10.9821 12.7992 13.9873 9.7939L13.2802 9.0868ZM25.2411 4.13132C20.7252 4.13132 16.4729 5.89414 13.2802 9.0868L13.9873 9.7939C16.9926 6.78864 20.9906 5.13132 25.2411 5.13132V4.13132ZM35.1192 7.31167C32.2599 5.24676 28.8335 4.13132 25.2411 4.13132V5.13132C28.6238 5.13132 31.8453 6.18086 34.5337 8.12237L35.1192 7.31167ZM34.8264 8.21702H36.5235V7.21702H34.8264V8.21702ZM25.2411 4.08435C29.2997 4.08435 33.1428 5.49866 36.1996 8.09793L36.8474 7.33611C33.6088 4.58229 29.5358 3.08435 25.2411 3.08435V4.08435ZM13.2479 9.05375C16.4483 5.84656 20.711 4.08435 25.2411 4.08435V3.08435C20.4464 3.08435 15.9287 4.95157 12.5401 8.3474L13.2479 9.05375ZM8.27777 21.0477C8.27777 16.5176 10.04 12.2547 13.2472 9.05452L12.5408 8.34663C9.14499 11.735 7.27777 16.2529 7.27777 21.0477H8.27777ZM13.2472 33.0411C10.04 29.8408 8.27777 25.5778 8.27777 21.0477H7.27777C7.27777 25.8425 9.14499 30.3604 12.5408 33.749L13.2472 33.0411Z"/></svg>